#!OML:ASF G:\JayActor3\Patient Classification 1\Patient 1\Session 5\male.ASF
:FULLY-SPECIFIED
:DEGREES
736
root 12.9215 14.4618 -5.64545 -162.121 -89.2739 172.488
lowerback 33.6844 -0.976543 1.89434
upperback 7.22635 -1.49401 -0.890988
thorax -9.26074 -1.0502 -1.34146
lowerneck -3.44723 0.638106 1.05015
upperneck -16.065 0.574929 1.5454
head -4.71846 -0.0801147 0.342701
rclavicle -1.74931e-014 -1.51076e-014
rhumerus -20.7528 7.50909 -86.487
rradius 49.1298
rwrist -6.14169
rhand -21.1266 -8.58341
rfingers 7.12502
rthumb 5.25213 -38.4983
lclavicle -1.74931e-014 -1.51076e-014
lhumerus -22.3726 -6.20742 83.4816
lradius 40.4678
lwrist 25.209
lhand -19.0754 12.8769
lfingers 7.12502
lthumb 7.23233 42.7333
rfemur -63.6015 5.02647 25.4956
rtibia 72.1068
rfoot -23.6467 -11.7144
rtoes 3.78093
lfemur -50.0293 12.8262 -15.6861
ltibia 104.216
lfoot 2.58878 -10.9122
ltoes -13.7058
737
root 13.0248 14.4577 -5.62933 -163.828 -89.1928 174.207
lowerback 33.581 -0.966873 1.88307
upperback 7.22652 -1.48589 -0.892683
thorax -9.22067 -1.04549 -1.34221
lowerneck -3.44593 0.657524 1.06492
upperneck -16.0339 0.599081 1.51776
head -4.70687 -0.0666689 0.32977
rclavicle -8.94531e-015 -7.95139e-016
rhumerus -20.7218 7.53522 -86.5389
rradius 49.1339
rwrist -6.1562
rhand -21.0723 -8.61547
rfingers 7.12502
rthumb 5.30456 -38.5291
lclavicle -8.94531e-015 -7.95139e-016
lhumerus -22.3509 -6.15735 83.4594
lradius 40.4863
lwrist 25.2293
lhand -19.1052 12.8817
lfingers 7.12502
lthumb 7.20359 42.7391
rfemur -63.9141 4.9968 25.4166
rtibia 71.7932
rfoot -23.271 -11.6243
rtoes 3.60371
lfemur -49.147 12.6915 -15.8556
ltibia 103.441
lfoot 3.48653 -11.2912
ltoes -12.4807
738
root 13.1293 14.4521 -5.61289 -164.62 -89.1213 175.006
lowerback 33.482 -0.960516 1.86686
upperback 7.22948 -1.48387 -0.895317
thorax -9.1793 -1.04361 -1.33896
lowerneck -3.45032 0.678586 1.07867
upperneck -16.0101 0.62524 1.49278
head -4.69701 -0.0526242 0.317932
rclavicle 7.95139e-016 1.23246e-014
rhumerus -20.6887 7.56146 -86.5888
rradius 49.1492
rwrist -6.17897
rhand -21 -8.65215
rfingers 7.12502
rthumb 5.37438 -38.564
lclavicle 7.95139e-016 1.23246e-014
lhumerus -22.3268 -6.12074 83.4361
lradius 40.5205
lwrist 25.2656
lhand -19.125 12.8807
lfingers 7.12502
lthumb 7.18453 42.7388
rfemur -64.2319 4.96485 25.3274
rtibia 71.4858
rfoot -22.9124 -11.5522
rtoes 3.32327
lfemur -48.2966 12.5408 -16.0723
ltibia 102.573
lfoot 4.28817 -11.5658
ltoes -11.2884
739
root 13.2348 14.4453 -5.59598 -164.731 -89.0599 175.118
lowerback 33.396 -0.958468 1.85204
upperback 7.23214 -1.48713 -0.901427
thorax -9.14352 -1.04427 -1.33792
lowerneck -3.45133 0.697412 1.08982
upperneck -15.9982 0.649005 1.4754
head -4.69224 -0.0403601 0.309294
rclavicle 1.66979e-014 2.10712e-014
rhumerus -20.6668 7.58099 -86.6421
rradius 49.1817
rwrist -6.20708
rhand -20.931 -8.68897
rfingers 7.12502
rthumb 5.44098 -38.5991
lclavicle 1.66979e-014 2.10712e-014
lhumerus -22.3035 -6.10845 83.4126
lradius 40.5709
lwrist 25.3183
lhand -19.1336 12.8846
lfingers 7.12502
lthumb 7.17622 42.7429
rfemur -64.548 4.93284 25.2254
rtibia 71.1835
rfoot -22.5687 -11.492
rtoes 2.94675
lfemur -47.4654 12.3666 -16.3365
ltibia 101.605
lfoot 5.02801 -11.698
ltoes -10.0548
740
root 13.3413 14.437 -5.57863 -164.547 -89.0018 174.924
lowerback 33.3245 -0.957267 1.84011
upperback 7.23433 -1.49092 -0.91116
thorax -9.11393 -1.04533 -1.34178
lowerneck -3.44385 0.711922 1.09517
upperneck -15.9986 0.668058 1.46808
head -4.69388 -0.030918 0.305305
rclavicle 1.59028e-015 5.1684e-015
rhumerus -20.6608 7.59346 -86.6984
rradius 49.2332
rwrist -6.24176
rhand -20.8699 -8.72064
rfingers 7.12502
rthumb 5.49992 -38.6293
lclavicle 1.59028e-015 5.1684e-015
lhumerus -22.2744 -6.11801 83.3884
lradius 40.6252
lwrist 25.3807
lhand -19.1264 12.8891
lfingers 7.12502
lthumb 7.18315 42.7472
rfemur -64.8586 4.90866 25.1128
rtibia 70.8863
rfoot -22.2362 -11.431
rtoes 2.50812
lfemur -46.6432 12.181 -16.6428
ltibia 100.526
lfoot 5.70719 -11.6655
ltoes -8.83255
